<svg width="970" height="152" viewBox="0 0 970 152" fill="none" xmlns="http://www.w3.org/2000/svg">
<path d="M151.216 136.985V151.971H136.306V136.985H151.216ZM136.306 136.985V122.151H151.216V136.985H136.306ZM136.306 122.151V106.939H151.216V122.151H136.306ZM136.306 106.939V91.8022H151.216V106.939H136.306ZM136.306 91.8022V76.5898H151.216V91.8022H136.306ZM136.306 76.5898V61.4531H151.216V76.5898H136.306ZM136.306 61.4531V46.2407H151.216V61.4531H136.306ZM136.306 46.2407V31.0283H151.216V46.2407H136.306ZM136.306 31.0283V16.1943H151.216V31.0283H136.306ZM121.169 16.1943V0.981934H136.306V16.1943H121.169ZM136.306 136.985V151.971H121.169V136.985H136.306ZM121.169 136.985V122.151H136.306V136.985H121.169ZM121.169 122.151V106.939H136.306V122.151H121.169ZM121.169 106.939V91.8022H136.306V106.939H121.169ZM121.169 91.8022V76.5898H136.306V91.8022H121.169ZM121.169 76.5898V61.4531H136.306V76.5898H121.169ZM121.169 61.4531V46.2407H136.306V61.4531H121.169ZM121.169 46.2407V31.0283H136.306V46.2407H121.169ZM121.169 31.0283V16.1943H136.306V31.0283H121.169ZM105.957 16.1943V0.981934H121.169V16.1943H105.957ZM121.169 136.985V151.971H105.957V136.985H121.169ZM105.957 136.985V122.151H121.169V136.985H105.957ZM90.8203 16.1943V0.981934H105.957V16.1943H90.8203ZM105.957 136.985V151.971H90.8203V136.985H105.957ZM90.8203 136.985V122.151H105.957V136.985H90.8203ZM75.6079 16.1943V0.981934H90.8203V16.1943H75.6079ZM75.6079 136.985V122.151H90.8203V136.985H75.6079ZM75.6079 122.151V106.939H90.8203V122.151H75.6079ZM75.6079 106.939V91.8022H90.8203V106.939H75.6079ZM75.6079 91.8022V76.5898H90.8203V91.8022H75.6079ZM75.6079 61.4531V46.2407H90.8203V61.4531H75.6079ZM75.6079 46.2407V31.0283H90.8203V46.2407H75.6079ZM75.6079 31.0283V16.1943H90.8203V31.0283H75.6079ZM75.6079 136.985V151.971H60.3955V136.985H75.6079ZM60.3955 136.985V122.151H75.6079V136.985H60.3955ZM60.3955 122.151V106.939H75.6079V122.151H60.3955ZM60.3955 106.939V91.8022H75.6079V106.939H60.3955ZM60.3955 91.8022V76.5898H75.6079V91.8022H60.3955ZM60.3955 61.4531V46.2407H75.6079V61.4531H60.3955ZM60.3955 46.2407V31.0283H75.6079V46.2407H60.3955ZM60.3955 31.0283V16.1943H75.6079V31.0283H60.3955ZM45.5615 16.1943V0.981934H60.3955V16.1943H45.5615ZM60.3955 136.985V151.971H45.5615V136.985H60.3955ZM45.5615 136.985V122.151H60.3955V136.985H45.5615ZM45.5615 122.151V106.939H60.3955V122.151H45.5615ZM45.5615 106.939V91.8022H60.3955V106.939H45.5615ZM45.5615 91.8022V76.5898H60.3955V91.8022H45.5615ZM45.5615 61.4531V46.2407H60.3955V61.4531H45.5615ZM45.5615 46.2407V31.0283H60.3955V46.2407H45.5615ZM45.5615 31.0283V16.1943H60.3955V31.0283H45.5615ZM30.3491 16.1943V0.981934H45.5615V16.1943H30.3491ZM45.5615 136.985V151.971H30.3491V136.985H45.5615ZM30.3491 136.985V122.151H45.5615V136.985H30.3491ZM15.2124 16.1943V0.981934H30.3491V16.1943H15.2124ZM30.3491 136.985V151.971H15.2124V136.985H30.3491ZM15.2124 136.985V122.151H30.3491V136.985H15.2124ZM0 16.1943V0.981934H15.2124V16.1943H0ZM0 136.985V122.151H15.2124V136.985H0ZM0 122.151V106.939H15.2124V122.151H0ZM0 106.939V91.8022H15.2124V106.939H0ZM0 91.8022V76.5898H15.2124V91.8022H0ZM0 76.5898V61.4531H15.2124V76.5898H0ZM0 61.4531V46.2407H15.2124V61.4531H0ZM0 46.2407V31.0283H15.2124V46.2407H0ZM0 31.0283V16.1943H15.2124V31.0283H0ZM287.598 136.985V151.971H272.688V136.985H287.598ZM272.688 136.985V122.151H287.598V136.985H272.688ZM272.688 122.151V106.939H287.598V122.151H272.688ZM272.688 106.939V91.8022H287.598V106.939H272.688ZM272.688 91.8022V76.5898H287.598V91.8022H272.688ZM272.688 76.5898V61.4531H287.598V76.5898H272.688ZM272.688 61.4531V46.2407H287.598V61.4531H272.688ZM272.688 46.2407V31.0283H287.598V46.2407H272.688ZM272.688 136.985V151.971H257.551V136.985H272.688ZM257.551 136.985V122.151H272.688V136.985H257.551ZM257.551 122.151V106.939H272.688V122.151H257.551ZM257.551 106.939V91.8022H272.688V106.939H257.551ZM257.551 91.8022V76.5898H272.688V91.8022H257.551ZM257.551 76.5898V61.4531H272.688V76.5898H257.551ZM257.551 61.4531V46.2407H272.688V61.4531H257.551ZM257.551 46.2407V31.0283H272.688V46.2407H257.551ZM257.551 31.0283V16.1943H272.688V31.0283H257.551ZM242.339 16.1943V0.981934H257.551V16.1943H242.339ZM257.551 136.985V151.971H242.339V136.985H257.551ZM242.339 136.985V122.151H257.551V136.985H242.339ZM242.339 31.0283V16.1943H257.551V31.0283H242.339ZM227.202 16.1943V0.981934H242.339V16.1943H227.202ZM242.339 136.985V151.971H227.202V136.985H242.339ZM227.202 136.985V122.151H242.339V136.985H227.202ZM211.99 16.1943V0.981934H227.202V16.1943H211.99ZM211.99 136.985V122.151H227.202V136.985H211.99ZM211.99 122.151V106.939H227.202V122.151H211.99ZM211.99 106.939V91.8022H227.202V106.939H211.99ZM211.99 76.5898V61.4531H227.202V76.5898H211.99ZM211.99 61.4531V46.2407H227.202V61.4531H211.99ZM211.99 46.2407V31.0283H227.202V46.2407H211.99ZM196.777 16.1943V0.981934H211.99V16.1943H196.777ZM211.99 136.985V151.971H196.777V136.985H211.99ZM196.777 136.985V122.151H211.99V136.985H196.777ZM196.777 122.151V106.939H211.99V122.151H196.777ZM196.777 106.939V91.8022H211.99V106.939H196.777ZM196.777 76.5898V61.4531H211.99V76.5898H196.777ZM196.777 61.4531V46.2407H211.99V61.4531H196.777ZM196.777 46.2407V31.0283H211.99V46.2407H196.777ZM181.943 16.1943V0.981934H196.777V16.1943H181.943ZM196.777 136.985V151.971H181.943V136.985H196.777ZM181.943 136.985V122.151H196.777V136.985H181.943ZM181.943 122.151V106.939H196.777V122.151H181.943ZM181.943 106.939V91.8022H196.777V106.939H181.943ZM181.943 76.5898V61.4531H196.777V76.5898H181.943ZM181.943 61.4531V46.2407H196.777V61.4531H181.943ZM181.943 46.2407V31.0283H196.777V46.2407H181.943ZM166.731 16.1943V0.981934H181.943V16.1943H166.731ZM181.943 136.985V151.971H166.731V136.985H181.943ZM166.731 136.985V122.151H181.943V136.985H166.731ZM151.594 16.1943V0.981934H166.731V16.1943H151.594ZM166.731 136.985V151.971H151.594V136.985H166.731ZM151.594 136.985V122.151H166.731V136.985H151.594ZM151.594 31.0283V16.1943H166.731V31.0283H151.594ZM136.382 136.985V122.151H151.594V136.985H136.382ZM136.382 122.151V106.939H151.594V122.151H136.382ZM136.382 106.939V91.8022H151.594V106.939H136.382ZM136.382 91.8022V76.5898H151.594V91.8022H136.382ZM136.382 76.5898V61.4531H151.594V76.5898H136.382ZM136.382 61.4531V46.2407H151.594V61.4531H136.382ZM136.382 46.2407V31.0283H151.594V46.2407H136.382ZM136.382 31.0283V16.1943H151.594V31.0283H136.382ZM409.07 136.985V122.151H423.979V136.985H409.07ZM409.07 122.151V106.939H423.979V122.151H409.07ZM409.07 106.939V91.8022H423.979V106.939H409.07ZM409.07 76.5898V61.4531H423.979V76.5898H409.07ZM409.07 61.4531V46.2407H423.979V61.4531H409.07ZM409.07 46.2407V31.0283H423.979V46.2407H409.07ZM409.07 136.985V151.971H393.933V136.985H409.07ZM393.933 136.985V122.151H409.07V136.985H393.933ZM393.933 122.151V106.939H409.07V122.151H393.933ZM393.933 106.939V91.8022H409.07V106.939H393.933ZM393.933 91.8022V76.5898H409.07V91.8022H393.933ZM393.933 76.5898V61.4531H409.07V76.5898H393.933ZM393.933 61.4531V46.2407H409.07V61.4531H393.933ZM393.933 46.2407V31.0283H409.07V46.2407H393.933ZM393.933 31.0283V16.1943H409.07V31.0283H393.933ZM378.721 16.1943V0.981934H393.933V16.1943H378.721ZM393.933 136.985V151.971H378.721V136.985H393.933ZM378.721 136.985V122.151H393.933V136.985H378.721ZM378.721 122.151V106.939H393.933V122.151H378.721ZM378.721 91.8022V76.5898H393.933V91.8022H378.721ZM378.721 76.5898V61.4531H393.933V76.5898H378.721ZM378.721 61.4531V46.2407H393.933V61.4531H378.721ZM378.721 31.0283V16.1943H393.933V31.0283H378.721ZM363.584 16.1943V0.981934H378.721V16.1943H363.584ZM378.721 136.985V151.971H363.584V136.985H378.721ZM363.584 136.985V122.151H378.721V136.985H363.584ZM363.584 91.8022V76.5898H378.721V91.8022H363.584ZM363.584 76.5898V61.4531H378.721V76.5898H363.584ZM363.584 61.4531V46.2407H378.721V61.4531H363.584ZM348.372 16.1943V0.981934H363.584V16.1943H348.372ZM363.584 136.985V151.971H348.372V136.985H363.584ZM348.372 136.985V122.151H363.584V136.985H348.372ZM348.372 106.939V91.8022H363.584V106.939H348.372ZM348.372 91.8022V76.5898H363.584V91.8022H348.372ZM348.372 76.5898V61.4531H363.584V76.5898H348.372ZM348.372 61.4531V46.2407H363.584V61.4531H348.372ZM348.372 46.2407V31.0283H363.584V46.2407H348.372ZM333.159 16.1943V0.981934H348.372V16.1943H333.159ZM348.372 136.985V151.971H333.159V136.985H348.372ZM333.159 136.985V122.151H348.372V136.985H333.159ZM333.159 106.939V91.8022H348.372V106.939H333.159ZM333.159 91.8022V76.5898H348.372V91.8022H333.159ZM333.159 76.5898V61.4531H348.372V76.5898H333.159ZM333.159 61.4531V46.2407H348.372V61.4531H333.159ZM333.159 46.2407V31.0283H348.372V46.2407H333.159ZM318.325 16.1943V0.981934H333.159V16.1943H318.325ZM333.159 136.985V151.971H318.325V136.985H333.159ZM318.325 136.985V122.151H333.159V136.985H318.325ZM318.325 106.939V91.8022H333.159V106.939H318.325ZM318.325 91.8022V76.5898H333.159V91.8022H318.325ZM318.325 76.5898V61.4531H333.159V76.5898H318.325ZM318.325 61.4531V46.2407H333.159V61.4531H318.325ZM318.325 46.2407V31.0283H333.159V46.2407H318.325ZM303.113 16.1943V0.981934H318.325V16.1943H303.113ZM318.325 136.985V151.971H303.113V136.985H318.325ZM303.113 136.985V122.151H318.325V136.985H303.113ZM287.976 16.1943V0.981934H303.113V16.1943H287.976ZM287.976 136.985V122.151H303.113V136.985H287.976ZM287.976 122.151V106.939H303.113V122.151H287.976ZM287.976 31.0283V16.1943H303.113V31.0283H287.976ZM272.764 122.151V106.939H287.976V122.151H272.764ZM272.764 106.939V91.8022H287.976V106.939H272.764ZM272.764 91.8022V76.5898H287.976V91.8022H272.764ZM272.764 76.5898V61.4531H287.976V76.5898H272.764ZM272.764 61.4531V46.2407H287.976V61.4531H272.764ZM272.764 46.2407V31.0283H287.976V46.2407H272.764ZM272.764 31.0283V16.1943H287.976V31.0283H272.764ZM560.361 136.985V151.971H545.452V136.985H560.361ZM545.452 136.985V122.151H560.361V136.985H545.452ZM545.452 122.151V106.939H560.361V122.151H545.452ZM545.452 61.4531V46.2407H560.361V61.4531H545.452ZM545.452 46.2407V31.0283H560.361V46.2407H545.452ZM545.452 31.0283V16.1943H560.361V31.0283H545.452ZM530.315 16.1943V0.981934H545.452V16.1943H530.315ZM545.452 136.985V151.971H530.315V136.985H545.452ZM530.315 136.985V122.151H545.452V136.985H530.315ZM530.315 122.151V106.939H545.452V122.151H530.315ZM530.315 106.939V91.8022H545.452V106.939H530.315ZM530.315 76.5898V61.4531H545.452V76.5898H530.315ZM530.315 61.4531V46.2407H545.452V61.4531H530.315ZM530.315 46.2407V31.0283H545.452V46.2407H530.315ZM530.315 31.0283V16.1943H545.452V31.0283H530.315ZM515.103 16.1943V0.981934H530.315V16.1943H515.103ZM530.315 136.985V151.971H515.103V136.985H530.315ZM515.103 136.985V122.151H530.315V136.985H515.103ZM515.103 106.939V91.8022H530.315V106.939H515.103ZM515.103 91.8022V76.5898H530.315V91.8022H515.103ZM515.103 76.5898V61.4531H530.315V76.5898H515.103ZM515.103 61.4531V46.2407H530.315V61.4531H515.103ZM515.103 46.2407V31.0283H530.315V46.2407H515.103ZM499.966 16.1943V0.981934H515.103V16.1943H499.966ZM515.103 136.985V151.971H499.966V136.985H515.103ZM499.966 136.985V122.151H515.103V136.985H499.966ZM499.966 91.8022V76.5898H515.103V91.8022H499.966ZM499.966 76.5898V61.4531H515.103V76.5898H499.966ZM499.966 61.4531V46.2407H515.103V61.4531H499.966ZM484.753 16.1943V0.981934H499.966V16.1943H484.753ZM484.753 136.985V122.151H499.966V136.985H484.753ZM484.753 122.151V106.939H499.966V122.151H484.753ZM484.753 76.5898V61.4531H499.966V76.5898H484.753ZM484.753 31.0283V16.1943H499.966V31.0283H484.753ZM484.753 136.985V151.971H469.541V136.985H484.753ZM469.541 136.985V122.151H484.753V136.985H469.541ZM469.541 122.151V106.939H484.753V122.151H469.541ZM469.541 106.939V91.8022H484.753V106.939H469.541ZM469.541 46.2407V31.0283H484.753V46.2407H469.541ZM469.541 31.0283V16.1943H484.753V31.0283H469.541ZM454.707 16.1943V0.981934H469.541V16.1943H454.707ZM469.541 136.985V151.971H454.707V136.985H469.541ZM454.707 136.985V122.151H469.541V136.985H454.707ZM454.707 122.151V106.939H469.541V122.151H454.707ZM454.707 106.939V91.8022H469.541V106.939H454.707ZM454.707 91.8022V76.5898H469.541V91.8022H454.707ZM454.707 61.4531V46.2407H469.541V61.4531H454.707ZM454.707 46.2407V31.0283H469.541V46.2407H454.707ZM454.707 31.0283V16.1943H469.541V31.0283H454.707ZM439.495 16.1943V0.981934H454.707V16.1943H439.495ZM454.707 136.985V151.971H439.495V136.985H454.707ZM439.495 136.985V122.151H454.707V136.985H439.495ZM424.358 16.1943V0.981934H439.495V16.1943H424.358ZM439.495 136.985V151.971H424.358V136.985H439.495ZM424.358 136.985V122.151H439.495V136.985H424.358ZM409.146 16.1943V0.981934H424.358V16.1943H409.146ZM409.146 136.985V122.151H424.358V136.985H409.146ZM409.146 122.151V106.939H424.358V122.151H409.146ZM409.146 106.939V91.8022H424.358V106.939H409.146ZM409.146 91.8022V76.5898H424.358V91.8022H409.146ZM409.146 76.5898V61.4531H424.358V76.5898H409.146ZM409.146 61.4531V46.2407H424.358V61.4531H409.146ZM409.146 46.2407V31.0283H424.358V46.2407H409.146ZM409.146 31.0283V16.1943H424.358V31.0283H409.146ZM696.743 136.985V151.971H681.833V136.985H696.743ZM681.833 136.985V122.151H696.743V136.985H681.833ZM681.833 122.151V106.939H696.743V122.151H681.833ZM681.833 106.939V91.8022H696.743V106.939H681.833ZM681.833 91.8022V76.5898H696.743V91.8022H681.833ZM681.833 76.5898V61.4531H696.743V76.5898H681.833ZM681.833 61.4531V46.2407H696.743V61.4531H681.833ZM681.833 46.2407V31.0283H696.743V46.2407H681.833ZM681.833 31.0283V16.1943H696.743V31.0283H681.833ZM666.697 16.1943V0.981934H681.833V16.1943H666.697ZM681.833 136.985V151.971H666.697V136.985H681.833ZM666.697 136.985V122.151H681.833V136.985H666.697ZM666.697 122.151V106.939H681.833V122.151H666.697ZM666.697 106.939V91.8022H681.833V106.939H666.697ZM666.697 91.8022V76.5898H681.833V91.8022H666.697ZM666.697 76.5898V61.4531H681.833V76.5898H666.697ZM666.697 61.4531V46.2407H681.833V61.4531H666.697ZM666.697 46.2407V31.0283H681.833V46.2407H666.697ZM666.697 31.0283V16.1943H681.833V31.0283H666.697ZM651.484 16.1943V0.981934H666.697V16.1943H651.484ZM666.697 136.985V151.971H651.484V136.985H666.697ZM651.484 136.985V122.151H666.697V136.985H651.484ZM636.348 16.1943V0.981934H651.484V16.1943H636.348ZM651.484 136.985V151.971H636.348V136.985H651.484ZM636.348 136.985V122.151H651.484V136.985H636.348ZM621.135 16.1943V0.981934H636.348V16.1943H621.135ZM621.135 136.985V122.151H636.348V136.985H621.135ZM621.135 122.151V106.939H636.348V122.151H621.135ZM621.135 106.939V91.8022H636.348V106.939H621.135ZM621.135 91.8022V76.5898H636.348V91.8022H621.135ZM621.135 76.5898V61.4531H636.348V76.5898H621.135ZM621.135 31.0283V16.1943H636.348V31.0283H621.135ZM621.135 136.985V151.971H605.923V136.985H621.135ZM605.923 136.985V122.151H621.135V136.985H605.923ZM605.923 122.151V106.939H621.135V122.151H605.923ZM605.923 106.939V91.8022H621.135V106.939H605.923ZM605.923 91.8022V76.5898H621.135V91.8022H605.923ZM605.923 46.2407V31.0283H621.135V46.2407H605.923ZM605.923 31.0283V16.1943H621.135V31.0283H605.923ZM591.089 16.1943V0.981934H605.923V16.1943H591.089ZM605.923 136.985V151.971H591.089V136.985H605.923ZM591.089 136.985V122.151H605.923V136.985H591.089ZM591.089 122.151V106.939H605.923V122.151H591.089ZM591.089 106.939V91.8022H605.923V106.939H591.089ZM591.089 91.8022V76.5898H605.923V91.8022H591.089ZM591.089 76.5898V61.4531H605.923V76.5898H591.089ZM591.089 31.0283V16.1943H605.923V31.0283H591.089ZM575.876 16.1943V0.981934H591.089V16.1943H575.876ZM591.089 136.985V151.971H575.876V136.985H591.089ZM575.876 136.985V122.151H591.089V136.985H575.876ZM560.74 16.1943V0.981934H575.876V16.1943H560.74ZM575.876 136.985V151.971H560.74V136.985H575.876ZM560.74 136.985V122.151H575.876V136.985H560.74ZM545.527 16.1943V0.981934H560.74V16.1943H545.527ZM545.527 136.985V122.151H560.74V136.985H545.527ZM545.527 122.151V106.939H560.74V122.151H545.527ZM545.527 106.939V91.8022H560.74V106.939H545.527ZM545.527 91.8022V76.5898H560.74V91.8022H545.527ZM545.527 76.5898V61.4531H560.74V76.5898H545.527ZM545.527 61.4531V46.2407H560.74V61.4531H545.527ZM545.527 46.2407V31.0283H560.74V46.2407H545.527ZM545.527 31.0283V16.1943H560.74V31.0283H545.527ZM833.125 136.985V151.971H818.215V136.985H833.125ZM818.215 136.985V122.151H833.125V136.985H818.215ZM818.215 122.151V106.939H833.125V122.151H818.215ZM818.215 106.939V91.8022H833.125V106.939H818.215ZM818.215 91.8022V76.5898H833.125V91.8022H818.215ZM818.215 76.5898V61.4531H833.125V76.5898H818.215ZM818.215 61.4531V46.2407H833.125V61.4531H818.215ZM818.215 46.2407V31.0283H833.125V46.2407H818.215ZM818.215 136.985V151.971H803.079V136.985H818.215ZM803.079 136.985V122.151H818.215V136.985H803.079ZM803.079 122.151V106.939H818.215V122.151H803.079ZM803.079 106.939V91.8022H818.215V106.939H803.079ZM803.079 91.8022V76.5898H818.215V91.8022H803.079ZM803.079 76.5898V61.4531H818.215V76.5898H803.079ZM803.079 61.4531V46.2407H818.215V61.4531H803.079ZM803.079 46.2407V31.0283H818.215V46.2407H803.079ZM803.079 31.0283V16.1943H818.215V31.0283H803.079ZM787.866 16.1943V0.981934H803.079V16.1943H787.866ZM803.079 136.985V151.971H787.866V136.985H803.079ZM787.866 136.985V122.151H803.079V136.985H787.866ZM787.866 31.0283V16.1943H803.079V31.0283H787.866ZM772.729 16.1943V0.981934H787.866V16.1943H772.729ZM787.866 136.985V151.971H772.729V136.985H787.866ZM772.729 136.985V122.151H787.866V136.985H772.729ZM757.517 16.1943V0.981934H772.729V16.1943H757.517ZM757.517 136.985V122.151H772.729V136.985H757.517ZM757.517 122.151V106.939H772.729V122.151H757.517ZM757.517 106.939V91.8022H772.729V106.939H757.517ZM757.517 76.5898V61.4531H772.729V76.5898H757.517ZM757.517 61.4531V46.2407H772.729V61.4531H757.517ZM757.517 46.2407V31.0283H772.729V46.2407H757.517ZM742.305 16.1943V0.981934H757.517V16.1943H742.305ZM757.517 136.985V151.971H742.305V136.985H757.517ZM742.305 136.985V122.151H757.517V136.985H742.305ZM742.305 122.151V106.939H757.517V122.151H742.305ZM742.305 106.939V91.8022H757.517V106.939H742.305ZM742.305 76.5898V61.4531H757.517V76.5898H742.305ZM742.305 61.4531V46.2407H757.517V61.4531H742.305ZM742.305 46.2407V31.0283H757.517V46.2407H742.305ZM727.471 16.1943V0.981934H742.305V16.1943H727.471ZM742.305 136.985V151.971H727.471V136.985H742.305ZM727.471 136.985V122.151H742.305V136.985H727.471ZM727.471 122.151V106.939H742.305V122.151H727.471ZM727.471 106.939V91.8022H742.305V106.939H727.471ZM727.471 76.5898V61.4531H742.305V76.5898H727.471ZM727.471 61.4531V46.2407H742.305V61.4531H727.471ZM727.471 46.2407V31.0283H742.305V46.2407H727.471ZM712.258 16.1943V0.981934H727.471V16.1943H712.258ZM727.471 136.985V151.971H712.258V136.985H727.471ZM712.258 136.985V122.151H727.471V136.985H712.258ZM697.122 16.1943V0.981934H712.258V16.1943H697.122ZM712.258 136.985V151.971H697.122V136.985H712.258ZM697.122 136.985V122.151H712.258V136.985H697.122ZM697.122 31.0283V16.1943H712.258V31.0283H697.122ZM681.909 136.985V122.151H697.122V136.985H681.909ZM681.909 122.151V106.939H697.122V122.151H681.909ZM681.909 106.939V91.8022H697.122V106.939H681.909ZM681.909 91.8022V76.5898H697.122V91.8022H681.909ZM681.909 76.5898V61.4531H697.122V76.5898H681.909ZM681.909 61.4531V46.2407H697.122V61.4531H681.909ZM681.909 46.2407V31.0283H697.122V46.2407H681.909ZM681.909 31.0283V16.1943H697.122V31.0283H681.909ZM969.507 136.985V151.971H954.597V136.985H969.507ZM954.597 136.985V122.151H969.507V136.985H954.597ZM954.597 122.151V106.939H969.507V122.151H954.597ZM954.597 106.939V91.8022H969.507V106.939H954.597ZM954.597 91.8022V76.5898H969.507V91.8022H954.597ZM954.597 76.5898V61.4531H969.507V76.5898H954.597ZM954.597 61.4531V46.2407H969.507V61.4531H954.597ZM954.597 46.2407V31.0283H969.507V46.2407H954.597ZM954.597 31.0283V16.1943H969.507V31.0283H954.597ZM939.46 16.1943V0.981934H954.597V16.1943H939.46ZM954.597 136.985V151.971H939.46V136.985H954.597ZM939.46 136.985V122.151H954.597V136.985H939.46ZM939.46 122.151V106.939H954.597V122.151H939.46ZM939.46 106.939V91.8022H954.597V106.939H939.46ZM939.46 91.8022V76.5898H954.597V91.8022H939.46ZM939.46 76.5898V61.4531H954.597V76.5898H939.46ZM939.46 61.4531V46.2407H954.597V61.4531H939.46ZM939.46 46.2407V31.0283H954.597V46.2407H939.46ZM939.46 31.0283V16.1943H954.597V31.0283H939.46ZM924.248 16.1943V0.981934H939.46V16.1943H924.248ZM939.46 136.985V151.971H924.248V136.985H939.46ZM924.248 136.985V122.151H939.46V136.985H924.248ZM909.111 16.1943V0.981934H924.248V16.1943H909.111ZM924.248 136.985V151.971H909.111V136.985H924.248ZM909.111 136.985V122.151H924.248V136.985H909.111ZM893.899 16.1943V0.981934H909.111V16.1943H893.899ZM893.899 136.985V122.151H909.111V136.985H893.899ZM893.899 122.151V106.939H909.111V122.151H893.899ZM893.899 106.939V91.8022H909.111V106.939H893.899ZM893.899 61.4531V46.2407H909.111V61.4531H893.899ZM893.899 46.2407V31.0283H909.111V46.2407H893.899ZM893.899 31.0283V16.1943H909.111V31.0283H893.899ZM893.899 136.985V151.971H878.687V136.985H893.899ZM878.687 136.985V122.151H893.899V136.985H878.687ZM878.687 122.151V106.939H893.899V122.151H878.687ZM878.687 106.939V91.8022H893.899V106.939H878.687ZM878.687 91.8022V76.5898H893.899V91.8022H878.687ZM878.687 46.2407V31.0283H893.899V46.2407H878.687ZM878.687 31.0283V16.1943H893.899V31.0283H878.687ZM863.853 16.1943V0.981934H878.687V16.1943H863.853ZM878.687 136.985V151.971H863.853V136.985H878.687ZM863.853 136.985V122.151H878.687V136.985H863.853ZM863.853 122.151V106.939H878.687V122.151H863.853ZM863.853 106.939V91.8022H878.687V106.939H863.853ZM863.853 91.8022V76.5898H878.687V91.8022H863.853ZM863.853 76.5898V61.4531H878.687V76.5898H863.853ZM863.853 31.0283V16.1943H878.687V31.0283H863.853ZM848.64 16.1943V0.981934H863.853V16.1943H848.64ZM863.853 136.985V151.971H848.64V136.985H863.853ZM848.64 136.985V122.151H863.853V136.985H848.64ZM833.503 16.1943V0.981934H848.64V16.1943H833.503ZM848.64 136.985V151.971H833.503V136.985H848.64ZM833.503 136.985V122.151H848.64V136.985H833.503ZM818.291 16.1943V0.981934H833.503V16.1943H818.291ZM818.291 136.985V122.151H833.503V136.985H818.291ZM818.291 122.151V106.939H833.503V122.151H818.291ZM818.291 106.939V91.8022H833.503V106.939H818.291ZM818.291 91.8022V76.5898H833.503V91.8022H818.291ZM818.291 76.5898V61.4531H833.503V76.5898H818.291ZM818.291 61.4531V46.2407H833.503V61.4531H818.291ZM818.291 46.2407V31.0283H833.503V46.2407H818.291ZM818.291 31.0283V16.1943H833.503V31.0283H818.291Z" fill="#D7BD7E"/>
</svg>
